{
    "asset": {
        "version": "2.0",
        "generator": "Open Asset Import Library (assimp v5.4.0)"
    },
    "extensionsUsed": [
        "KHR_materials_volume",
        "FB_ngon_encoding"
    ],
    "accessors": [
        {
            "bufferView": 0,
            "byteOffset": 0,
            "componentType": 5126,
            "count": 24,
            "type": "VEC3",
            "max": [
                100.0,
                100.0,
                100.0
            ],
            "min": [
                -100.0,
                -100.0,
                -100.0
            ]
        },
        {
            "bufferView": 1,
            "byteOffset": 0,
            "componentType": 5126,
            "count": 24,
            "type": "VEC3",
            "max": [
                1.0,
                1.0,
                1.0
            ],
            "min": [
                -1.0,
                -1.0,
                -1.0
            ]
        },
        {
            "bufferView": 2,
            "byteOffset": 0,
            "componentType": 5125,
            "count": 36,
            "type": "SCALAR",
            "max": [
                23
            ],
            "min": [
                0
            ]
        },
        {
            "bufferView": 3,
            "byteOffset": 0,
            "componentType": 5126,
            "count": 640,
            "type": "VEC3",
            "max": [
                50.0,
                100.0,
                50.0
            ],
            "min": [
                -50.0,
                -100.0,
                -49.99999237060547
            ]
        },
        {
            "bufferView": 4,
            "byteOffset": 0,
            "componentType": 5126,
            "count": 640,
            "type": "VEC3",
            "max": [
                1.0,
                1.0,
                1.0
            ],
            "min": [
                -1.0,
                -1.0,
                -1.0
            ]
        },
        {
            "bufferView": 5,
            "byteOffset": 0,
            "componentType": 5125,
            "count": 1920,
            "type": "SCALAR",
            "max": [
                639
            ],
            "min": [
                0
            ]
        },
        {
            "bufferView": 6,
            "byteOffset": 0,
            "componentType": 5126,
            "count": 241,
            "type": "VEC3",
            "max": [
                100.0,
                100.0,
                100.0
            ],
            "min": [
                -100.0,
                -100.0,
                -100.0
            ]
        },
        {
            "bufferView": 7,
            "byteOffset": 0,
            "componentType": 5126,
            "count": 241,
            "type": "VEC3",
            "max": [
                0.8944272398948669,
                0.44721364974975586,
                0.8944272398948669
            ],
            "min": [
                -0.8944272398948669,
                -1.0,
                -0.8944272398948669
            ]
        },
        {
            "bufferView": 8,
            "byteOffset": 0,
            "componentType": 5125,
            "count": 480,
            "type": "SCALAR",
            "max": [
                240
            ],
            "min": [
                0
            ]
        }
    ],
    "buffers": [
        {
            "byteLength": 31464,
            "uri": "test3DModel_0.bin"
        }
    ],
    "bufferViews": [
        {
            "buffer": 0,
            "byteOffset": 0,
            "byteLength": 288,
            "target": 34962
        },
        {
            "buffer": 0,
            "byteOffset": 288,
            "byteLength": 288,
            "target": 34962
        },
        {
            "buffer": 0,
            "byteOffset": 576,
            "byteLength": 144,
            "target": 34963
        },
        {
            "buffer": 0,
            "byteOffset": 720,
            "byteLength": 7680,
            "target": 34962
        },
        {
            "buffer": 0,
            "byteOffset": 8400,
            "byteLength": 7680,
            "target": 34962
        },
        {
            "buffer": 0,
            "byteOffset": 16080,
            "byteLength": 7680,
            "target": 34963
        },
        {
            "buffer": 0,
            "byteOffset": 23760,
            "byteLength": 2892,
            "target": 34962
        },
        {
            "buffer": 0,
            "byteOffset": 26652,
            "byteLength": 2892,
            "target": 34962
        },
        {
            "buffer": 0,
            "byteOffset": 29544,
            "byteLength": 1920,
            "target": 34963
        }
    ],
    "images": [
        {
            "uri": "textures/image_0.png"
        }
    ],
    "materials": [
        {
            "name": "80",
            "pbrMetallicRoughness": {
                "baseColorTexture": {
                    "index": 0
                },
                "metallicFactor": 0.0
            },
            "doubleSided": true
        }
    ],
    "meshes": [
        {
            "name": "meshes[0]",
            "primitives": [
                {
                    "mode": 4,
                    "material": 0,
                    "indices": 2,
                    "attributes": {
                        "POSITION": 0,
                        "NORMAL": 1
                    }
                }
            ]
        },
        {
            "name": "meshes[1]",
            "primitives": [
                {
                    "mode": 4,
                    "material": 0,
                    "indices": 5,
                    "attributes": {
                        "POSITION": 3,
                        "NORMAL": 4
                    }
                }
            ]
        },
        {
            "name": "meshes[2]",
            "primitives": [
                {
                    "mode": 4,
                    "material": 0,
                    "indices": 8,
                    "attributes": {
                        "POSITION": 6,
                        "NORMAL": 7
                    }
                }
            ]
        }
    ],
    "nodes": [
        {
            "name": "test3DModel",
            "children": [
                1
            ]
        },
        {
            "name": "root",
            "children": [
                2,
                3,
                4
            ],
            "extras": {
                "name": "root"
            }
        },
        {
            "name": "mesh_id49",
            "matrix": [
                0.001959453336894512,
                0.0,
                0.0,
                0.0,
                0.0,
                0.0005156337865628302,
                0.0,
                0.0,
                0.0,
                0.0,
                0.0010000000474974513,
                0.0,
                -0.03712426871061325,
                -0.1142570823431015,
                0.19899073243141174,
                1.0
            ],
            "mesh": 0
        },
        {
            "name": "mesh_id51",
            "matrix": [
                0.0010000000474974513,
                0.0,
                0.0,
                0.0,
                0.0,
                0.0007262260769493878,
                0.0,
                0.0,
                0.0,
                0.0,
                0.0010000000474974513,
                0.0,
                0.08114316314458847,
                0.009928901679813862,
                0.21250000596046448,
                1.0
            ],
            "mesh": 1
        },
        {
            "name": "mesh_id53",
            "matrix": [
                0.0010000000474974513,
                0.0,
                0.0,
                0.0,
                0.0,
                0.0010000000474974513,
                0.0,
                0.0,
                0.0,
                0.0,
                0.0010000000474974513,
                0.0,
                -0.0998113825917244,
                0.037306297570466995,
                0.1999834030866623,
                1.0
            ],
            "mesh": 2
        }
    ],
    "samplers": [
        {
            "magFilter": 9729,
            "minFilter": 9985
        }
    ],
    "scenes": [
        {
            "nodes": [
                0
            ]
        }
    ],
    "textures": [
        {
            "source": 0,
            "sampler": 0
        }
    ],
    "scene": 0
}